<svg xmlns="http://www.w3.org/2000/svg" width="81.816" height="22"><g data-name="logo / bank"><g data-name="logo-HSBS"><path data-name="Контур 185" d="M53.691 11.654h-3.983v3.924h-2.022V6.362h2.022v3.746h3.984V6.362h2.022v9.216h-2.023z"/><path data-name="Контур 186" d="M60.529 15.757c-1.962 0-3.627-.773-3.686-2.973h2.022c0 1.011.595 1.546 1.724 1.546.832 0 1.724-.416 1.724-1.308 0-.714-.654-.951-1.665-1.249l-.654-.178c-1.427-.416-2.914-1.011-2.914-2.616 0-2.081 1.9-2.735 3.686-2.735s3.33.654 3.33 2.676h-2.022a1.3 1.3 0 00-1.486-1.308 1.347 1.347 0 00-1.486 1.189c0 .654.595.892 1.9 1.308l.773.238c1.605.476 2.557 1.07 2.557 2.557.003 2.08-2.019 2.853-3.803 2.853z"/><path data-name="Контур 187" d="M65.464 6.362h3.211a6.124 6.124 0 011.784.119 2.239 2.239 0 011.962 2.2 2.111 2.111 0 01-1.843 2.081c1.249.238 2.141.892 2.141 2.259 0 2.081-2.081 2.557-3.686 2.557h-3.628V6.362zm3.211 3.865c.892 0 1.784-.178 1.784-1.249 0-.951-.832-1.189-1.665-1.189h-1.427v2.438zm.238 3.984c.951 0 1.843-.238 1.843-1.368 0-1.07-.773-1.368-1.724-1.368h-1.605v2.676h1.486z"/><path data-name="Контур 188" d="M78.011 15.757c-2.973 0-4.341-1.9-4.341-4.7s1.486-4.876 4.4-4.876c1.843 0 3.627.832 3.686 2.914h-2.081a1.524 1.524 0 00-1.605-1.427c-1.784 0-2.319 1.962-2.319 3.389 0 1.486.535 3.151 2.259 3.151a1.628 1.628 0 001.724-1.427h2.081c-.237 2.203-1.902 2.976-3.804 2.976z"/><g data-name="Сгруппировать 266"><path data-name="Прямоугольник 234" fill="#fff" d="M11 0h22v22H11z"/><path data-name="Контур 189" d="M33.059 22l11-11-11-11z" fill="#db0011"/><path data-name="Контур 190" d="M11 22L0 11 11 0z" fill="#db0011"/><path data-name="Контур 191" d="M33.059 0L22 11 11 0h22.059z" fill="#db0011"/><path data-name="Контур 192" d="M11 22l11-11 11.059 11H11z" fill="#db0011"/></g></g></g></svg>