<svg xmlns="http://www.w3.org/2000/svg" width="30.084" height="19.86"><path data-name="Контур 35" d="M30.084 19.226a.635.635 0 01-.633.633H.633A.635.635 0 010 19.226V.633a.635.635 0 01.633-.638h28.818a.635.635 0 01.633.633z" fill="#fff7ee"/><g data-name="Сгруппировать 28" fill="#e02424"><path data-name="Контур 36" d="M29.451 0H12.302v1.91h17.782V.633A.635.635 0 0029.451 0z"/><path data-name="Контур 37" d="M12.302 7.182v1.192a.718.718 0 01-.714.718h18.5v-1.91H12.302z"/><path data-name="Прямоугольник 29" d="M0 10.77h30.084v1.91H0z"/></g><g data-name="Сгруппировать 29" fill="#e02424"><path data-name="Прямоугольник 31" d="M0 14.36h30.084v1.91H0z"/><path data-name="Контур 38" d="M30.084 19.227V17.95H0v1.277a.635.635 0 00.633.633h28.818a.635.635 0 00.633-.633z"/><path data-name="Прямоугольник 32" d="M12.302 3.59h17.782V5.5H12.302z"/></g><path data-name="Контур 39" d="M.633 0A.635.635 0 000 .633v8.461h12.264a.718.718 0 00.714-.718V0z" fill="#0853a4"/><path data-name="Контур 40" d="M2.628 0h-2A.635.635 0 000 .633v8.461h2V.633A.635.635 0 012.628 0z" opacity=".1"/><g data-name="Сгруппировать 30" fill="#fff"><path data-name="Контур 41" d="M2.803 2.531a.088.088 0 01-.042-.011l-.173-.093-.173.093a.088.088 0 01-.042.011.089.089 0 01-.053-.018.094.094 0 01-.036-.091l.033-.2-.14-.139a.1.1 0 01-.023-.1.091.091 0 01.073-.063l.193-.029.086-.179a.09.09 0 01.163 0l.086.179.193.029a.091.091 0 01.073.063.094.094 0 01-.023.1l-.14.139.033.2a.094.094 0 01-.036.091.089.089 0 01-.052.018z"/><path data-name="Контур 42" d="M2.803 4.142a.087.087 0 01-.042-.011l-.173-.093-.173.093a.087.087 0 01-.042.011.089.089 0 01-.053-.018.094.094 0 01-.036-.091l.033-.2-.14-.139a.094.094 0 01-.023-.1.092.092 0 01.073-.063l.193-.029.086-.179a.09.09 0 01.163 0l.086.179.193.029a.092.092 0 01.073.063.094.094 0 01-.023.1l-.14.139.033.2a.094.094 0 01-.036.091.089.089 0 01-.052.018z"/><path data-name="Контур 43" d="M2.803 5.753a.089.089 0 01-.042-.011l-.172-.089-.173.093a.088.088 0 01-.042.011.09.09 0 01-.053-.018.094.094 0 01-.036-.091l.033-.2-.14-.139a.1.1 0 01-.023-.1.091.091 0 01.073-.063l.193-.029.086-.179a.09.09 0 01.163 0l.086.179.193.029a.092.092 0 01.073.063.1.1 0 01-.023.1l-.14.139.033.2a.094.094 0 01-.036.091.09.09 0 01-.053.014z"/><path data-name="Контур 44" d="M2.803 7.364a.089.089 0 01-.042-.011l-.173-.093-.173.093a.088.088 0 01-.042.011.089.089 0 01-.053-.018.094.094 0 01-.036-.091l.033-.2-.14-.139a.1.1 0 01-.023-.1.091.091 0 01.073-.063l.193-.029.086-.179a.09.09 0 01.163 0l.086.179.193.029a.092.092 0 01.073.063.094.094 0 01-.023.1l-.14.139.033.2a.094.094 0 01-.036.091.089.089 0 01-.052.018z"/><path data-name="Контур 45" d="M1.783 1.725a.087.087 0 01-.042-.011l-.173-.093-.173.093a.088.088 0 01-.042.011.089.089 0 01-.053-.018.093.093 0 01-.036-.091l.033-.2-.14-.139a.1.1 0 01-.023-.1.091.091 0 01.073-.063l.193-.029.086-.179a.09.09 0 01.162 0l.086.179.193.029A.091.091 0 012 1.177a.1.1 0 01-.023.1l-.14.139.033.2a.094.094 0 01-.036.091.089.089 0 01-.051.018z"/><path data-name="Контур 46" d="M1.783 3.336a.09.09 0 01-.042-.011l-.173-.093-.173.093a.089.089 0 01-.1-.007.094.094 0 01-.036-.091l.033-.2-.14-.139a.1.1 0 01-.023-.1.091.091 0 01.073-.063l.193-.029.086-.179a.09.09 0 01.162 0l.086.179.193.029a.091.091 0 01.073.063.094.094 0 01-.023.1l-.14.139.033.2a.094.094 0 01-.036.091.09.09 0 01-.046.018z"/><path data-name="Контур 47" d="M1.783 4.947a.09.09 0 01-.042-.011l-.173-.093-.173.093a.089.089 0 01-.1-.007.094.094 0 01-.036-.091l.033-.2-.14-.139a.1.1 0 01-.023-.1.091.091 0 01.073-.063l.193-.029.086-.179a.09.09 0 01.162 0l.086.179.193.029a.091.091 0 01.073.063.094.094 0 01-.023.1l-.14.139.033.2a.094.094 0 01-.036.091.09.09 0 01-.046.018z"/><path data-name="Контур 48" d="M1.783 6.559a.088.088 0 01-.042-.011l-.173-.093-.173.093a.089.089 0 01-.1-.007.093.093 0 01-.036-.091l.033-.2-.14-.139a.1.1 0 01-.023-.1.091.091 0 01.073-.063l.193-.029.086-.179a.09.09 0 01.162 0l.086.179.193.029a.091.091 0 01.073.063.1.1 0 01-.023.1l-.14.139.033.2a.094.094 0 01-.036.091.089.089 0 01-.046.018z"/><path data-name="Контур 49" d="M1.783 8.17a.089.089 0 01-.042-.011l-.173-.093-.173.093a.089.089 0 01-.1-.007.093.093 0 01-.036-.091l.033-.2-.14-.139a.1.1 0 01-.023-.1.091.091 0 01.073-.063l.193-.029.086-.179a.09.09 0 01.162 0l.086.179.193.029a.091.091 0 01.073.063.1.1 0 01-.023.1l-.14.139.033.2a.094.094 0 01-.036.091.088.088 0 01-.046.018z"/><path data-name="Контур 50" d="M4.784 2.531a.088.088 0 01-.042-.011l-.173-.093-.173.093a.088.088 0 01-.042.011.089.089 0 01-.053-.018.094.094 0 01-.036-.091l.033-.2-.14-.139a.094.094 0 01-.023-.1.091.091 0 01.073-.063l.193-.029.086-.179a.09.09 0 01.163 0l.086.179.193.029a.091.091 0 01.073.063.094.094 0 01-.023.1l-.14.139.033.2a.094.094 0 01-.036.091.089.089 0 01-.052.018z"/><path data-name="Контур 51" d="M4.784 4.142a.087.087 0 01-.042-.011l-.173-.093-.173.093a.087.087 0 01-.042.011.089.089 0 01-.053-.018.094.094 0 01-.036-.091l.033-.2-.14-.139a.094.094 0 01-.023-.1.092.092 0 01.073-.063l.193-.029.086-.179a.09.09 0 01.163 0l.086.179.193.029a.092.092 0 01.073.063.094.094 0 01-.023.1l-.14.139.033.2a.094.094 0 01-.036.091.088.088 0 01-.052.018z"/><path data-name="Контур 52" d="M4.784 5.753a.089.089 0 01-.042-.011l-.172-.089-.173.093a.088.088 0 01-.042.011.09.09 0 01-.053-.018.094.094 0 01-.036-.091l.033-.2-.14-.139a.1.1 0 01-.023-.1.092.092 0 01.073-.063l.193-.029.086-.179a.09.09 0 01.163 0l.086.179.193.029a.092.092 0 01.073.063.1.1 0 01-.023.1l-.14.139.033.2a.094.094 0 01-.036.091.089.089 0 01-.053.014z"/><path data-name="Контур 53" d="M4.784 7.364a.089.089 0 01-.042-.011l-.173-.093-.173.093a.089.089 0 01-.1-.007.094.094 0 01-.036-.091l.033-.2-.14-.139a.1.1 0 01-.023-.1.092.092 0 01.073-.063l.193-.029.086-.179a.09.09 0 01.163 0l.086.179.193.029a.092.092 0 01.073.063.094.094 0 01-.023.1l-.14.139.033.2a.094.094 0 01-.036.091.088.088 0 01-.047.018z"/><path data-name="Контур 54" d="M3.764 1.725a.087.087 0 01-.042-.011l-.173-.093-.173.093a.087.087 0 01-.042.011.089.089 0 01-.053-.018.094.094 0 01-.036-.091l.033-.2-.14-.139a.1.1 0 01-.023-.1.091.091 0 01.073-.063l.193-.029.086-.179a.09.09 0 01.163 0l.086.179.193.029a.091.091 0 01.073.063.094.094 0 01-.023.1l-.14.139.033.2a.094.094 0 01-.036.091.09.09 0 01-.052.018z"/><path data-name="Контур 55" d="M3.764 3.336a.09.09 0 01-.042-.011l-.173-.093-.173.093a.089.089 0 01-.042.011.09.09 0 01-.053-.018.094.094 0 01-.036-.091l.033-.2-.14-.139a.1.1 0 01-.023-.1.091.091 0 01.073-.063l.193-.029.086-.179a.09.09 0 01.163 0l.086.179.193.029a.091.091 0 01.073.063.094.094 0 01-.023.1l-.14.139.033.2a.094.094 0 01-.036.091.09.09 0 01-.052.018z"/><path data-name="Контур 56" d="M3.764 4.947a.089.089 0 01-.042-.011l-.173-.093-.173.093a.089.089 0 01-.1-.007.094.094 0 01-.036-.091l.033-.2-.14-.139a.1.1 0 01-.023-.1.091.091 0 01.073-.063l.193-.029.086-.179a.09.09 0 01.163 0l.086.179.193.029a.091.091 0 01.073.063.094.094 0 01-.023.1l-.14.139.033.2a.094.094 0 01-.036.091.09.09 0 01-.047.018z"/><path data-name="Контур 57" d="M3.764 6.559a.087.087 0 01-.042-.011l-.173-.093-.173.093a.089.089 0 01-.1-.007.094.094 0 01-.036-.091l.033-.2-.14-.139a.1.1 0 01-.023-.1.091.091 0 01.073-.063l.193-.029.088-.167a.09.09 0 01.163 0l.086.179.193.029a.091.091 0 01.073.063.1.1 0 01-.023.1l-.14.139.033.2a.094.094 0 01-.036.091.089.089 0 01-.049.006z"/><path data-name="Контур 58" d="M3.764 8.17a.089.089 0 01-.042-.011l-.173-.093-.173.093a.089.089 0 01-.1-.007.094.094 0 01-.036-.091l.033-.2-.14-.139a.1.1 0 01-.023-.1.091.091 0 01.073-.063l.193-.029.086-.179a.09.09 0 01.163 0l.086.179.193.029a.091.091 0 01.073.063.1.1 0 01-.023.1l-.14.139.033.2a.094.094 0 01-.036.091.089.089 0 01-.047.018z"/><path data-name="Контур 59" d="M6.766 2.531a.088.088 0 01-.042-.011l-.173-.093-.173.093a.088.088 0 01-.042.011.089.089 0 01-.053-.018.094.094 0 01-.036-.091l.033-.2-.14-.139a.094.094 0 01-.023-.1.091.091 0 01.073-.063l.193-.029.086-.179a.09.09 0 01.162 0l.086.179.193.029a.091.091 0 01.073.063.094.094 0 01-.023.1l-.14.139.033.2a.094.094 0 01-.036.091.09.09 0 01-.051.018z"/><path data-name="Контур 60" d="M6.766 4.142a.087.087 0 01-.042-.011l-.173-.093-.173.093a.087.087 0 01-.042.011.089.089 0 01-.053-.018.094.094 0 01-.036-.091l.033-.2-.14-.139a.094.094 0 01-.023-.1.091.091 0 01.073-.063l.193-.029.086-.179a.09.09 0 01.162 0l.086.179.193.029a.092.092 0 01.073.063.094.094 0 01-.023.1l-.14.139.033.2a.094.094 0 01-.036.091.089.089 0 01-.051.018z"/><path data-name="Контур 61" d="M6.766 5.753a.089.089 0 01-.042-.011l-.173-.093-.173.093a.088.088 0 01-.042.011.089.089 0 01-.053-.018.094.094 0 01-.036-.091l.033-.2-.14-.139a.1.1 0 01-.023-.1.091.091 0 01.073-.063l.193-.029.086-.179a.09.09 0 01.162 0l.086.179.193.029a.092.092 0 01.073.063.1.1 0 01-.023.1l-.14.139.033.2a.094.094 0 01-.036.091.09.09 0 01-.051.018z"/><path data-name="Контур 62" d="M6.766 7.364a.089.089 0 01-.042-.011l-.173-.093-.173.093a.089.089 0 01-.1-.007.094.094 0 01-.036-.091l.033-.2-.14-.139a.1.1 0 01-.023-.1.091.091 0 01.073-.063l.193-.029.086-.179a.09.09 0 01.162 0l.086.179.193.029a.092.092 0 01.073.063.1.1 0 01-.023.1l-.14.139.033.2a.094.094 0 01-.036.091.089.089 0 01-.046.018z"/><path data-name="Контур 63" d="M5.745 1.725a.087.087 0 01-.042-.011l-.173-.093-.173.093a.087.087 0 01-.042.011.089.089 0 01-.053-.018.094.094 0 01-.036-.091l.033-.2-.14-.139a.1.1 0 01-.023-.1.091.091 0 01.073-.063l.193-.029.086-.179a.09.09 0 01.163 0l.086.179.193.029a.091.091 0 01.073.063.1.1 0 01-.023.1l-.14.139.033.2a.094.094 0 01-.036.091.089.089 0 01-.052.018z"/><path data-name="Контур 64" d="M5.745 3.336a.09.09 0 01-.042-.011l-.173-.093-.173.093a.088.088 0 01-.042.011.09.09 0 01-.053-.018.094.094 0 01-.036-.091l.033-.2-.14-.139a.1.1 0 01-.023-.1.091.091 0 01.073-.063l.193-.029.086-.179a.09.09 0 01.163 0l.086.179.193.029a.091.091 0 01.073.063.1.1 0 01-.023.1l-.14.139.033.2a.094.094 0 01-.036.091.089.089 0 01-.052.018z"/><path data-name="Контур 65" d="M5.745 4.947a.089.089 0 01-.042-.011l-.173-.093-.173.093a.089.089 0 01-.1-.007.094.094 0 01-.036-.091l.033-.2-.14-.139a.094.094 0 01-.023-.1.091.091 0 01.073-.063l.193-.029.086-.179a.09.09 0 01.163 0l.086.179.193.029a.091.091 0 01.073.063.094.094 0 01-.023.1l-.14.139.033.2a.094.094 0 01-.036.091.089.089 0 01-.047.018z"/><path data-name="Контур 66" d="M5.745 6.559a.087.087 0 01-.042-.011l-.172-.096-.173.093a.088.088 0 01-.042.011.089.089 0 01-.053-.018.094.094 0 01-.036-.091l.033-.2-.14-.139a.1.1 0 01-.023-.1.091.091 0 01.073-.063l.193-.029.086-.179a.09.09 0 01.163 0l.086.179.193.029a.091.091 0 01.073.063.1.1 0 01-.023.1l-.14.139.033.2a.094.094 0 01-.036.091.088.088 0 01-.053.021z"/><path data-name="Контур 67" d="M5.745 8.17a.089.089 0 01-.042-.011l-.173-.093-.173.093a.089.089 0 01-.1-.007.094.094 0 01-.036-.091l.033-.2-.14-.139a.1.1 0 01-.023-.1.091.091 0 01.073-.063l.193-.029.086-.179a.09.09 0 01.163 0l.086.179.193.029a.091.091 0 01.073.063.1.1 0 01-.023.1l-.14.139.033.2a.094.094 0 01-.036.091.088.088 0 01-.047.018z"/><path data-name="Контур 68" d="M8.75 2.531a.088.088 0 01-.042-.011l-.173-.093-.173.093a.089.089 0 01-.1-.007.094.094 0 01-.036-.091l.033-.2-.14-.139a.094.094 0 01-.023-.1.091.091 0 01.073-.063l.193-.029.086-.179a.09.09 0 01.163 0l.086.179.193.029a.091.091 0 01.073.063.094.094 0 01-.023.1l-.14.139.033.2a.094.094 0 01-.036.091.088.088 0 01-.047.018z"/><path data-name="Контур 69" d="M8.75 4.142a.087.087 0 01-.042-.011l-.173-.093-.173.093a.088.088 0 01-.042.011.089.089 0 01-.053-.018.094.094 0 01-.036-.091l.033-.2-.14-.139a.094.094 0 01-.023-.1.091.091 0 01.073-.063l.193-.029.086-.179a.09.09 0 01.163 0l.086.179.193.029a.091.091 0 01.073.063.094.094 0 01-.023.1l-.14.139.033.2a.094.094 0 01-.036.091.087.087 0 01-.052.018z"/><path data-name="Контур 70" d="M8.75 5.753a.089.089 0 01-.042-.011l-.173-.093-.173.093a.088.088 0 01-.042.011.089.089 0 01-.053-.018.094.094 0 01-.036-.091l.033-.2-.14-.139a.1.1 0 01-.023-.1.091.091 0 01.073-.063l.193-.029.086-.179a.09.09 0 01.163 0l.086.179.193.029a.091.091 0 01.073.063.094.094 0 01-.023.1l-.14.139.033.2a.094.094 0 01-.036.091.088.088 0 01-.052.018z"/><path data-name="Контур 71" d="M8.75 7.364a.089.089 0 01-.042-.011l-.173-.093-.173.093a.089.089 0 01-.1-.007.094.094 0 01-.036-.091l.033-.2-.14-.139a.094.094 0 01-.023-.1.091.091 0 01.073-.063l.193-.029.086-.179a.09.09 0 01.163 0l.086.179.193.029a.091.091 0 01.073.063.094.094 0 01-.023.1l-.14.139.033.2a.094.094 0 01-.036.091.087.087 0 01-.047.018z"/><path data-name="Контур 72" d="M7.726 1.725a.088.088 0 01-.042-.011l-.173-.093-.173.093a.088.088 0 01-.042.011.089.089 0 01-.053-.018.094.094 0 01-.036-.091l.033-.2-.14-.139a.1.1 0 01-.023-.1.091.091 0 01.073-.063l.193-.029.086-.179a.09.09 0 01.163 0l.086.179.193.029a.091.091 0 01.073.063.094.094 0 01-.023.1l-.14.139.033.2a.094.094 0 01-.036.091.089.089 0 01-.052.018z"/><path data-name="Контур 73" d="M7.726 3.336a.09.09 0 01-.042-.011l-.173-.093-.173.093a.089.089 0 01-.042.011.09.09 0 01-.053-.018.094.094 0 01-.036-.091l.033-.2-.14-.139a.094.094 0 01-.023-.1.091.091 0 01.073-.063l.193-.029.086-.179a.09.09 0 01.163 0l.086.179.193.029a.091.091 0 01.073.063.094.094 0 01-.023.1l-.14.139.033.2a.094.094 0 01-.036.091.089.089 0 01-.052.018z"/><path data-name="Контур 74" d="M7.726 4.947a.09.09 0 01-.042-.011l-.173-.093-.173.093a.089.089 0 01-.1-.007.094.094 0 01-.036-.091l.033-.2-.14-.139a.094.094 0 01-.023-.1.091.091 0 01.073-.063l.193-.029.086-.179a.09.09 0 01.163 0l.086.179.193.029a.091.091 0 01.073.063.094.094 0 01-.023.1l-.14.139.033.2a.094.094 0 01-.036.091.089.089 0 01-.047.018z"/><path data-name="Контур 75" d="M7.726 6.559a.088.088 0 01-.042-.011l-.173-.093-.173.093a.088.088 0 01-.042.011.089.089 0 01-.053-.018.094.094 0 01-.036-.091l.033-.2-.14-.139a.1.1 0 01-.023-.1.091.091 0 01.073-.063l.193-.029.086-.179a.09.09 0 01.163 0l.086.179.193.029a.091.091 0 01.073.063.094.094 0 01-.023.1l-.14.139.033.2a.094.094 0 01-.036.091.089.089 0 01-.052.018z"/><path data-name="Контур 76" d="M7.726 8.17a.09.09 0 01-.042-.011l-.173-.093-.173.093a.089.089 0 01-.1-.007.094.094 0 01-.036-.091l.033-.2-.14-.139a.1.1 0 01-.023-.1.091.091 0 01.073-.063l.193-.029.086-.179a.09.09 0 01.163 0l.086.179.193.029a.091.091 0 01.073.063.094.094 0 01-.023.1l-.14.139.033.2a.094.094 0 01-.036.091.088.088 0 01-.047.018z"/><path data-name="Контур 77" d="M10.728 2.531a.088.088 0 01-.042-.011l-.173-.093-.173.093a.089.089 0 01-.1-.007.093.093 0 01-.036-.091l.033-.2-.14-.139a.1.1 0 01-.023-.1.091.091 0 01.073-.063l.193-.029.086-.179a.09.09 0 01.163 0l.086.179.193.029a.091.091 0 01.073.063.094.094 0 01-.023.1l-.14.139.033.2a.094.094 0 01-.036.091.089.089 0 01-.047.018z"/><path data-name="Контур 78" d="M10.728 4.142a.087.087 0 01-.042-.011l-.173-.093-.173.093a.087.087 0 01-.042.011.088.088 0 01-.053-.018.093.093 0 01-.036-.091l.033-.2-.14-.139a.094.094 0 01-.023-.1.092.092 0 01.073-.063l.193-.029.086-.179a.09.09 0 01.163 0l.086.179.193.029a.091.091 0 01.073.063.094.094 0 01-.023.1l-.14.139.033.2a.094.094 0 01-.036.091.088.088 0 01-.052.018z"/><path data-name="Контур 79" d="M10.728 5.753a.089.089 0 01-.042-.011l-.172-.089-.173.093a.089.089 0 01-.1-.007.093.093 0 01-.036-.091l.033-.2-.14-.139a.1.1 0 01-.023-.1.092.092 0 01.073-.063l.193-.029.086-.179a.09.09 0 01.163 0l.086.179.193.029a.091.091 0 01.073.063.1.1 0 01-.023.1l-.14.139.033.2a.094.094 0 01-.036.091.089.089 0 01-.048.014z"/><path data-name="Контур 80" d="M10.728 7.364a.089.089 0 01-.042-.011l-.173-.093-.173.093a.089.089 0 01-.1-.007.093.093 0 01-.036-.091l.033-.2-.14-.139a.1.1 0 01-.023-.1.092.092 0 01.073-.063l.193-.029.086-.179a.09.09 0 01.163 0l.086.179.193.029a.091.091 0 01.073.063.094.094 0 01-.023.1l-.14.139.033.2a.094.094 0 01-.036.091.088.088 0 01-.047.018z"/><path data-name="Контур 81" d="M9.708 1.725a.087.087 0 01-.042-.011l-.173-.093-.173.093a.087.087 0 01-.042.011.089.089 0 01-.053-.018.094.094 0 01-.036-.091l.033-.2-.14-.139a.1.1 0 01-.023-.1.091.091 0 01.073-.063l.193-.029.086-.179a.09.09 0 01.163 0l.086.179.193.029a.091.091 0 01.073.063.1.1 0 01-.023.1l-.14.139.033.2a.094.094 0 01-.036.091.09.09 0 01-.052.018z"/><path data-name="Контур 82" d="M9.708 3.336a.09.09 0 01-.042-.011l-.173-.093-.173.093a.089.089 0 01-.042.011.09.09 0 01-.053-.018.094.094 0 01-.036-.091l.033-.2-.14-.139a.1.1 0 01-.023-.1.091.091 0 01.073-.063l.193-.029.086-.179a.09.09 0 01.163 0l.086.179.193.029a.091.091 0 01.073.063.094.094 0 01-.023.1l-.14.139.033.2a.094.094 0 01-.036.091.09.09 0 01-.052.018z"/><path data-name="Контур 83" d="M9.708 4.947a.089.089 0 01-.042-.011l-.173-.093-.173.093a.089.089 0 01-.1-.007.094.094 0 01-.036-.091l.033-.2-.14-.139a.094.094 0 01-.023-.1.091.091 0 01.073-.063l.193-.029.086-.179a.09.09 0 01.163 0l.086.179.193.029a.091.091 0 01.073.063.094.094 0 01-.023.1l-.14.139.033.2a.094.094 0 01-.036.091.09.09 0 01-.047.018z"/><path data-name="Контур 84" d="M9.708 6.559a.087.087 0 01-.042-.011l-.173-.093-.173.093a.089.089 0 01-.1-.007.094.094 0 01-.036-.091l.033-.2-.14-.139a.1.1 0 01-.023-.1.091.091 0 01.073-.063l.193-.029.086-.179a.09.09 0 01.163 0l.086.179.193.029a.091.091 0 01.073.063.1.1 0 01-.023.1l-.14.139.033.2a.094.094 0 01-.036.091.089.089 0 01-.047.018z"/><path data-name="Контур 85" d="M9.708 8.17a.089.089 0 01-.042-.011l-.173-.093-.173.093a.089.089 0 01-.1-.007.094.094 0 01-.036-.091l.033-.2-.14-.139a.1.1 0 01-.023-.1.091.091 0 01.073-.063l.193-.029.086-.179a.09.09 0 01.163 0l.086.179.193.029a.091.091 0 01.073.063.1.1 0 01-.023.1l-.14.139.033.2a.094.094 0 01-.036.091.089.089 0 01-.047.018z"/><path data-name="Контур 86" d="M11.688 1.725a.087.087 0 01-.042-.011l-.173-.093-.173.093a.088.088 0 01-.042.011.089.089 0 01-.053-.018.094.094 0 01-.036-.091l.033-.2-.14-.139a.1.1 0 01-.023-.1.091.091 0 01.073-.063l.193-.029.086-.179a.09.09 0 01.163 0l.086.179.193.029a.091.091 0 01.073.063.094.094 0 01-.023.1l-.14.139.033.2a.094.094 0 01-.036.091.089.089 0 01-.052.018z"/><path data-name="Контур 87" d="M11.688 3.336a.089.089 0 01-.042-.011l-.173-.093-.173.093a.089.089 0 01-.042.011.09.09 0 01-.053-.018.094.094 0 01-.036-.091l.033-.2-.14-.139a.1.1 0 01-.023-.1.091.091 0 01.073-.063l.193-.029.086-.179a.09.09 0 01.163 0l.086.179.193.029a.092.092 0 01.073.063.094.094 0 01-.023.1l-.14.139.033.2a.094.094 0 01-.036.091.089.089 0 01-.052.018z"/><path data-name="Контур 88" d="M11.688 4.947a.089.089 0 01-.042-.011l-.173-.093-.173.093a.089.089 0 01-.1-.007.094.094 0 01-.036-.091l.033-.2-.14-.139a.094.094 0 01-.023-.1.091.091 0 01.073-.063l.193-.029.086-.179a.09.09 0 01.163 0l.086.179.193.029a.092.092 0 01.073.063.094.094 0 01-.023.1l-.14.139.033.2a.094.094 0 01-.036.091.089.089 0 01-.047.018z"/><path data-name="Контур 89" d="M11.688 6.559a.087.087 0 01-.042-.011l-.173-.093-.173.093a.088.088 0 01-.042.011.089.089 0 01-.053-.018.094.094 0 01-.036-.091l.033-.2-.14-.139a.1.1 0 01-.023-.1.091.091 0 01.073-.063l.193-.029.086-.179a.09.09 0 01.163 0l.086.179.193.029a.092.092 0 01.073.063.094.094 0 01-.023.1l-.14.139.033.2a.094.094 0 01-.036.091.088.088 0 01-.052.018z"/><path data-name="Контур 90" d="M11.688 8.17a.089.089 0 01-.042-.011l-.173-.093-.173.093a.089.089 0 01-.1-.007.094.094 0 01-.036-.091l.033-.2-.14-.139a.1.1 0 01-.023-.1.091.091 0 01.073-.063l.193-.029.086-.179a.09.09 0 01.163 0l.086.179.193.029a.091.091 0 01.073.063.094.094 0 01-.023.1l-.14.139.033.2a.094.094 0 01-.036.091.088.088 0 01-.047.018z"/></g></svg>