<svg xmlns="http://www.w3.org/2000/svg" width="30.044" height="30.044"><path data-name="Контур 107" d="M30.044 15.022a15.022 15.022 0 10-17.369 14.839v-10.5H8.861v-4.339h3.814v-3.31c0-3.765 2.243-5.844 5.674-5.844a23.1 23.1 0 013.363.293v3.7h-1.895a2.171 2.171 0 00-2.448 2.339v2.818h4.166l-.666 4.342h-3.5v10.5a15.026 15.026 0 0012.675-14.838z" fill="#1877f2"/><path data-name="Контур 108" d="M20.87 19.368l.666-4.342H17.37v-2.818a2.171 2.171 0 012.448-2.346h1.894v-3.7a23.1 23.1 0 00-3.363-.293c-3.431 0-5.674 2.08-5.674 5.844v3.31H8.861v4.345h3.814v10.5a15.181 15.181 0 004.694 0v-10.5z" fill="#fff"/></svg>