<svg xmlns="http://www.w3.org/2000/svg" width="89.485" height="90"><g transform="translate(-359 -1599.846)"><rect data-name="Прямоугольник 69" width="89.485" height="90" rx="5" transform="translate(359 1599.846)" fill="rgba(23,99,222,0.1)" opacity=".5"/><path data-name="base / 60x60" fill="none" d="M370 1612.846h64v64h-64z"/><g data-name="Сгруппировать 339" fill="#1763de"><path data-name="Контур 234" d="M401.761 1640.879a3.961 3.961 0 10-3.961-3.958 3.966 3.966 0 003.961 3.958zm0-6.691a2.73 2.73 0 11-2.73 2.73 2.734 2.734 0 012.73-2.73z"/><path data-name="Контур 235" d="M419.1 1650.301a3.961 3.961 0 10-3.961 3.961 3.966 3.966 0 003.961-3.961zm-3.961 2.73a2.73 2.73 0 112.73-2.73 2.733 2.733 0 01-2.726 2.73z"/><path data-name="Прямоугольник 254" d="M399.448 1651.742l17.136-17.136.87.87-17.136 17.136z"/><path data-name="Контур 236" d="M434.607 1631.132l.195-.291-.195.29-8.578-5.71 1.031.686v-8.147a.766.766 0 00-.766-.765h-5.575a.766.766 0 00-.766.765v3.4l-11.078-7.386a.763.763 0 00-.848 0l-25.727 17.157a3.085 3.085 0 103.4 5.146l4.144-2.762v22.706h-2.93v-.349a.768.768 0 00-.764-.767h-8.924a.766.766 0 00-.765.766v.35H372v1.531h4.461v11.856H372v1.532h4.461v.349a.766.766 0 00.765.766h8.924a.766.766 0 00.765-.766v-.949l8.808 3.658a18.885 18.885 0 0013.933.153l17.228-6.57a3.73 3.73 0 002.083-1.983 3.812 3.812 0 00.06-2.932 3.682 3.682 0 00-1.774-1.945l-.192-.1v-27.3l4.125 2.75a3.085 3.085 0 003.421-5.134zm-49.225 39.589h-7.391v-14.079h7.391zm36.1-52h4.045v6.36l-4.045-2.7zm6.112 44.711a2.274 2.274 0 01-.033 1.746 2.216 2.216 0 01-1.229 1.174l-17.226 6.569a17.361 17.361 0 01-12.806-.135l-9.387-3.9v-11.128h3.177a24.407 24.407 0 0110.81 2.55 7.585 7.585 0 003.362.794h8.651a2.024 2.024 0 01.45 3.991l-.2.025a2.453 2.453 0 01-.322.026H399.88v1.532h13.032a6.7 6.7 0 002.5-.526l9.324-3.951a2.121 2.121 0 011.665 0 2.2 2.2 0 011.194 1.236zm-14.676-3.862l-.006-.349v.349h-8.65a6.039 6.039 0 01-2.678-.636 25.73 25.73 0 00-9.884-2.658l-.328-.021v-23.762l17.078-11.385 17.079 11.385v28.008l-.321.027a3.669 3.669 0 00-1.071.258l-7.808 3.315.1-.624a3.253 3.253 0 00.037-.368 3.552 3.552 0 00-3.548-3.539zm21.272-25.007a1.555 1.555 0 01-1.293.692 1.551 1.551 0 01-.858-.258l-23.164-15.444a.761.761 0 00-.848 0l-23.158 15.439a1.555 1.555 0 01-1.73-2.585l25.311-16.876 25.309 16.874a1.557 1.557 0 01.431 2.158z"/></g></g></svg>