<svg xmlns="http://www.w3.org/2000/svg" width="89.485" height="90"><g transform="translate(-359 -1599.846)"><rect data-name="Прямоугольник 69" width="89.485" height="90" rx="5" transform="translate(359 1599.846)" fill="rgba(57,185,131,0.1)"/><g data-name="img-InsuranceCalculation (export this)"><path data-name="base / 60x60" fill="none" d="M371.999 1612.846h64v64h-64z"/><g data-name="Сгруппировать 338" fill="#0ab46c"><path data-name="Контур 237" d="M418.253 1646.587l-.131-.017v-28.591a3.134 3.134 0 00-3.122-3.133h-33.882a3.134 3.134 0 00-3.118 3.133v53.55a3.133 3.133 0 003.118 3.132H415a.612.612 0 00.074 0c.355.021.681.032.994.032h.321a14.114 14.114 0 001.86-28.1zm-8.668 26.907h-28.468a1.962 1.962 0 01-1.949-1.967v-53.548a1.963 1.963 0 011.949-1.966H415a1.963 1.963 0 011.95 1.967v28.473l-.15-.007a15.328 15.328 0 00-1.887.029l-.162.013v-9.254a.84.84 0 00-.837-.838H381.7a.841.841 0 00-.837.838v33.029a.84.84 0 00.837.838l20.683.009a.574.574 0 00.4 0l.052-.009h3.64l.043.037a14.586 14.586 0 003.133 2.071zm-5.943-20.643v-6.9h9.937v.677l-.124.021a14.555 14.555 0 00-9.538 6.278l-.121-.08h-.154zm0-8.063v-7.226h9.933v7.226zm-1.176 11.034a13.773 13.773 0 00-.831 4.734c0 .34.013.68.038 1.014l.012.162H392.4v-7.433h10.075zm-.466 7.876v6.238h-9.6v-7.038h9.431l.022.124c.132.724.147.447.147.676zm-9.6-10.566v-7.177h10.075v7.178zm0-8.344v-7.226h10.078v7.226zm-10.365 16.945v-7.433h9.2v7.433zm9.2 1.165v7.038h-9.2v-7.038zm-9.2-18.11v-7.226h9.2v7.226zm0 8.345v-7.178h9.2v7.178zm21.128 13.777l.281.493a14.258 14.258 0 001.619 2.284l.216.249h-2.112zm13.046 6.612h-.142a12.968 12.968 0 01.3-25.933h.309a12.967 12.967 0 01-.468 25.93z"/><path data-name="Контур 238" d="M417 1653.387l-.131-.017v-1.176a.584.584 0 10-1.167 0v1.177l-.131.017a3.375 3.375 0 00-1.889.907 4.066 4.066 0 00-1.109 2.889 3.522 3.522 0 002.985 3.312l.578.112c.065.013.22.059.3.083a.855.855 0 01.092.034l.278.11a.8.8 0 01.084.038c.127.064.16.082.248.133l.169.1a3.42 3.42 0 011.741 2.4 2.371 2.371 0 01-.631 1.889 3.4 3.4 0 01-2.448.846 2.849 2.849 0 01-2.669-2.112.593.593 0 00-.583-.54.487.487 0 00-.066 0 .582.582 0 00-.514.644 3.97 3.97 0 003.436 3.135l.128.02v1.02a.584.584 0 001.167 0v-1.062l.127-.021a4.188 4.188 0 002.249-1.106 3.553 3.553 0 00.975-2.738 4.5 4.5 0 00-2.279-3.358l-.21-.123a3.478 3.478 0 00-.505-.254l-.24-.093a2.587 2.587 0 00-.213-.076 4.041 4.041 0 00-.418-.11l-.568-.112a2.322 2.322 0 01-2.046-2.178 2.867 2.867 0 01.752-2.041 2.558 2.558 0 011.969-.63h.009a2.972 2.972 0 012.818 2.113.584.584 0 101.137-.267 4.1 4.1 0 00-3.425-2.965z"/></g></g></g></svg>