<svg xmlns="http://www.w3.org/2000/svg" width="89.485" height="90"><g transform="translate(-359 -1811.846)"><rect data-name="base / img" width="89.485" height="90" rx="5" transform="translate(359 1811.846)" fill="rgba(199,142,52,0.15)"/><g data-name="img-PartlyPayment (export this)"><path data-name="base / 60x60" fill="none" d="M372 1824.846h64v64h-64z"/><g data-name="Сгруппировать 337" fill="#c78e34"><path data-name="Контур 241" d="M375.34 1875.985v-30.3h54.8v15.256a15.654 15.654 0 011.334 1.5v-25.181a4.546 4.546 0 00-4.54-4.539h-5.133v-2.241a3.578 3.578 0 00-3.577-3.51h-.058a3.555 3.555 0 00-3.514 3.514v2.229h-8.343v-2.233a3.574 3.574 0 00-3.514-3.634h-.06a3.573 3.573 0 00-3.569 3.514v2.353h-8.343v-2.233a3.572 3.572 0 00-3.514-3.634h-.06a3.573 3.573 0 00-3.569 3.514v2.353h-5.14a4.545 4.545 0 00-4.539 4.543v38.724a4.546 4.546 0 004.54 4.54h27.1a.649.649 0 00.32-.093c-.255-.4-.492-.816-.71-1.243H378.54a3.221 3.221 0 01-3.2-3.199zm40.648-45.505a2.236 2.236 0 114.472 0v5.807a2.236 2.236 0 11-4.472 0zm-15.486 0a2.236 2.236 0 014.472 0v5.807a2.236 2.236 0 11-4.472 0zm-15.486 0a2.236 2.236 0 014.472 0v5.807a2.236 2.236 0 01-4.472 0zm-9.677 6.78a3.221 3.221 0 013.2-3.2h5.141v2.236a3.578 3.578 0 003.514 3.634h.059a3.575 3.575 0 003.57-3.514v-2.359h8.345v2.236a3.572 3.572 0 003.514 3.634 3.64 3.64 0 002.542-1.006 3.542 3.542 0 001.086-2.508v-2.356h8.343v2.236a3.578 3.578 0 003.514 3.634h.057a3.579 3.579 0 003.577-3.514v-2.356h5.139a3.219 3.219 0 013.2 3.2v7.08h-54.801z"/><path data-name="Контур 242" d="M390.947 1851.337h-6a1.4 1.4 0 00-1.4 1.4v5a1.4 1.4 0 001.4 1.4h6a1.4 1.4 0 001.4-1.4v-5a1.4 1.4 0 00-1.4-1.4zm.6 6.4a.6.6 0 01-.6.6h-6a.6.6 0 01-.6-.6v-5a.6.6 0 01.6-.6h6a.6.6 0 01.6.6z"/><path data-name="Контур 243" d="M390.947 1863.336h-6a1.4 1.4 0 00-1.4 1.4v5a1.4 1.4 0 001.4 1.4h6a1.4 1.4 0 001.4-1.4v-5a1.4 1.4 0 00-1.4-1.4zm.6 6.4a.6.6 0 01-.6.6h-6a.6.6 0 01-.6-.6v-5a.6.6 0 01.6-.6h6a.6.6 0 01.6.6z"/><path data-name="Контур 244" d="M403.947 1851.337h-6a1.4 1.4 0 00-1.4 1.4v5a1.4 1.4 0 001.4 1.4h6a1.4 1.4 0 001.4-1.4v-5a1.4 1.4 0 00-1.4-1.4zm.6 6.4a.6.6 0 01-.6.6h-6a.6.6 0 01-.6-.6v-5a.6.6 0 01.6-.6h6a.6.6 0 01.6.6z"/><path data-name="Контур 245" d="M397.347 1869.737v-5a.6.6 0 01.6-.6h6a.6.6 0 01.6.6v1.887a15.666 15.666 0 01.8-1.8v-.083a1.4 1.4 0 00-1.4-1.4h-6a1.4 1.4 0 00-1.4 1.4v5a1.4 1.4 0 001.4 1.4h5.64c.017-.268.028-.536.058-.8h-5.7a.6.6 0 01-.598-.604z"/><path data-name="Контур 246" d="M416.947 1851.337h-6a1.4 1.4 0 00-1.4 1.4v5a1.4 1.4 0 00.993 1.333c.391-.261.793-.508 1.208-.734h-.8a.6.6 0 01-.6-.6v-5a.6.6 0 01.6-.6h6a.6.6 0 01.6.6v3.8c.263-.028.533-.031.8-.045v-3.754a1.4 1.4 0 00-1.401-1.4z"/><path data-name="Контур 247" d="M431.909 1863.019c-.064-.09-.133-.177-.2-.266-.079-.1-.155-.212-.236-.315a15.654 15.654 0 00-1.334-1.5c-.1-.095-.2-.181-.3-.273s-.2-.183-.3-.272a15.571 15.571 0 00-10.353-3.945c-.284 0-.561.028-.841.043s-.537.017-.8.045a15.532 15.532 0 00-5.8 1.8c-.415.226-.817.473-1.208.734a15.46 15.46 0 00-5.993 7.554 15.475 15.475 0 00-.9 3.712c-.03.265-.041.533-.058.8-.02.321-.049.639-.049.964a15.537 15.537 0 001.424 6.483c.046.1.1.2.145.3s.094.2.144.3c.218.427.455.84.71 1.243.052.083.1.17.153.252s.106.165.161.246a15.636 15.636 0 1025.635-17.905zm-12.721 23.231a14.085 14.085 0 01-14.046-15.8c.051-.433.116-.862.2-1.282a14.162 14.162 0 0112.084-11.1c.293-.036.591-.059.89-.077s.574-.044.867-.044a14.15 14.15 0 110 28.3z"/><path data-name="Контур 248" d="M419.646 1867.397a2.514 2.514 0 012.411 1.794.656.656 0 001.274-.309 3.8 3.8 0 00-3.17-2.76v-.933a.656.656 0 10-1.311-.051.434.434 0 000 .051v.935a3.129 3.129 0 00-1.764.848 3.79 3.79 0 00-1.033 2.684 3.278 3.278 0 002.783 3.091l.147.029.364.071c.056.011.187.05.257.071a.583.583 0 01.07.025l.026.011.225.086a.488.488 0 01.066.029c.109.055.135.07.214.116l.117.068.026.017.025.015a2.919 2.919 0 011.471 2.04 1.981 1.981 0 01-.53 1.572 2.951 2.951 0 01-2.084.713 2.4 2.4 0 01-2.265-1.789.656.656 0 00-1.311.046.665.665 0 00.011.1 3.688 3.688 0 003.186 2.92v.8a.656.656 0 001.311 0v-.835a3.911 3.911 0 002.082-1.025 3.307 3.307 0 00.913-2.555 4.148 4.148 0 00-2.106-3.109l-.064-.039-.122-.07a4.564 4.564 0 00-.28-.152 1.93 1.93 0 00-.192-.085l-.214-.082a1.976 1.976 0 00-.2-.071 3.435 3.435 0 00-.388-.1l-.357-.069-.149-.029a1.95 1.95 0 01-1.722-1.823 2.442 2.442 0 01.638-1.73 2.137 2.137 0 011.645-.516z"/></g></g></g></svg>