<svg xmlns="http://www.w3.org/2000/svg" width="89.485" height="90"><g data-name="img-MoreInsurance" transform="translate(-359 -1811.846)"><rect data-name="Прямоугольник 69" width="89.485" height="90" rx="5" transform="translate(359 1811.846)" fill="rgba(171,52,199,0.1)"/><g data-name="img-MoreInsurance (export this)"><path data-name="base / 60x60" fill="none" d="M372 1824.846h64v64h-64z"/><g data-name="Сгруппировать 336" fill="#ab34c7"><g data-name="Сгруппировать 334"><path data-name="Контур 251" d="M395.242 1853.236a.51.51 0 00-.35.126.465.465 0 00-.149.327.471.471 0 00.453.486h13.959a.758.758 0 00.136-.024q-.414-.444-.794-.915z"/><path data-name="Контур 252" d="M387.952 1854.901a.47.47 0 00.624.035l4.351-3.477a.471.471 0 00-.6-.725l-4.008 3.202-1.442-1.438a.47.47 0 10-.664.664z"/><path data-name="Контур 253" d="M409.155 1862.796h-13.913a.453.453 0 00-.5.454.47.47 0 00.454.485h13.959a.435.435 0 00.351-.125.471.471 0 00-.306-.814"/><path data-name="Контур 254" d="M387.952 1864.467a.468.468 0 00.623.035l4.352-3.478a.459.459 0 00.15-.311.47.47 0 00-.749-.413l-4.009 3.206-1.442-1.442a.471.471 0 00-.664 0 .468.468 0 000 .664z"/><path data-name="Контур 255" d="M409.155 1872.362h-13.913a.416.416 0 00-.351.125.472.472 0 00.306.815h13.958a.46.46 0 00.5-.453.474.474 0 00-.455-.487"/><path data-name="Контур 256" d="M392.328 1869.865l-4.009 3.207-1.442-1.443a.47.47 0 00-.664.664l1.739 1.743a.466.466 0 00.624.034l4.351-3.476a.471.471 0 00-.6-.725z"/></g><g data-name="Сгруппировать 335"><path data-name="Контур 257" d="M429.32 1833.148l-11.527-6.144a1.328 1.328 0 00-1.263 0l-11.211 6.15a1.327 1.327 0 00-.69 1.158v.408H378v51.875h40.569v-28.078l.151-.065.15-.065.526-.227a17.3 17.3 0 0010.623-15.982v-7.863a1.321 1.321 0 00-.699-1.167zm-12.188 52.008h-37.693v-49h25.19v6.18a17.344 17.344 0 003.26 10.1c.1.132.183.269.282.4s.218.266.326.4q.381.471.794.915c.1.105.194.209.294.311s.184.2.28.29a17.333 17.333 0 005.174 3.484l1.557.678a1.226 1.226 0 00.235.049c.05.011.1.025.15.031a1.455 1.455 0 00.143.03h.008zm11.387-42.978a15.8 15.8 0 01-9.649 14.574c-.021.008-.04.019-.061.028l-.089.038-.151.065-1.437.62h-.008l-.143-.062-.15-.065-1.192-.519a15.838 15.838 0 01-5.526-4.021 15.881 15.881 0 01-3.313-5.942c-.015-.049-.025-.1-.039-.15l-.04-.15-.023-.088c-.052-.19-.1-.379-.15-.571-.058-.249-.1-.5-.151-.753a15.872 15.872 0 01-.27-2.844v-7.918l11.038-6.051 11.354 6.052z"/><path data-name="Контур 258" d="M425.187 1839.077a.7.7 0 00-.9-.092l-7.087 6.536-.069.064-1.14-1.061-2.991-2.788c-.005-.005-.012-.007-.018-.012a.7.7 0 00-1.043.918l4.573 4.363a.7.7 0 00.97.088l.454-.415.111-.1.111-.1 7.015-6.412a.7.7 0 00.014-.989z"/></g></g></g></g></svg>