<svg xmlns="http://www.w3.org/2000/svg" width="24" height="24"><path data-name="Контур 188" d="M0 0h24v24H0z" fill="none"/><path data-name="Контур 189" d="M10.5 9h3a.5.5 0 00.5-.5V6h1.79a.5.5 0 00.35-.85l-3.79-3.79a.5.5 0 00-.71 0L7.85 5.15a.5.5 0 00.36.85H10v2.5a.5.5 0 00.5.5zm-2 1H6V8.21a.5.5 0 00-.85-.35l-3.79 3.79a.5.5 0 000 .71l3.79 3.79a.5.5 0 00.85-.36V14h2.5a.5.5 0 00.5-.5v-3a.5.5 0 00-.5-.5zm14.15 1.65l-3.79-3.79a.5.5 0 00-.86.35V10h-2.5a.5.5 0 00-.5.5v3a.5.5 0 00.5.5H18v1.79a.5.5 0 00.85.35l3.79-3.79a.492.492 0 00.01-.7zM13.5 15h-3a.5.5 0 00-.5.5V18H8.21a.5.5 0 00-.35.85l3.79 3.79a.5.5 0 00.71 0l3.79-3.79a.5.5 0 00-.35-.85H14v-2.5a.5.5 0 00-.5-.5z" fill="#fff"/></svg>