<svg xmlns="http://www.w3.org/2000/svg" width="23.266" height="23.266"><path data-name="Контур 195" d="M17.573 15.5a1.058 1.058 0 01-.748-1.805l2.818-2.818a5.066 5.066 0 001.507-3.63 5.143 5.143 0 00-5.136-5.136 5.067 5.067 0 00-3.626 1.5L9.567 6.44a1.06 1.06 0 01-1.5-1.5l2.818-2.818A7.161 7.161 0 0116.015 0a7.26 7.26 0 017.251 7.251 7.162 7.162 0 01-2.131 5.129l-2.815 2.814a1.053 1.053 0 01-.747.306zm0 0" fill="#1763de"/><path data-name="Контур 196" d="M7.251 23.266A7.26 7.26 0 010 16.015a7.161 7.161 0 012.131-5.129l2.815-2.814a1.06 1.06 0 011.5 1.5L3.628 12.39a5.063 5.063 0 00-1.508 3.629 5.143 5.143 0 005.136 5.136 5.067 5.067 0 003.626-1.5l2.822-2.822a1.06 1.06 0 011.5 1.5l-2.818 2.818a7.162 7.162 0 01-5.135 2.115zm0 0" fill="#1763de"/><path data-name="Контур 197" d="M7.403 16.921a1.057 1.057 0 01-.748-1.805l8.46-8.46a1.06 1.06 0 111.5 1.5l-8.46 8.46a1.054 1.054 0 01-.752.305zm0 0" fill="#1763de"/></svg>