<svg xmlns="http://www.w3.org/2000/svg" width="31" height="32"><g transform="translate(-1233 -572)"><rect data-name="Прямоугольник 231" width="31" height="32" rx="2" transform="translate(1233 572)" fill="rgba(23,99,222,0.1)"/><g data-name="ic-raise (export this)"><g data-name="Сгруппировать 253"><path data-name="Контур 31" d="M1241.539 595.523l.481.484a.806.806 0 001.137 0l5.49-5.49 5.5 5.5a.806.806 0 001.137 0l.477-.485a.8.8 0 000-1.137l-6.544-6.567a.821.821 0 00-.57-.258.821.821 0 00-.568.258l-6.538 6.55a.812.812 0 00-.235.574.8.8 0 00.233.571z" fill="#1763de"/></g><g data-name="Сгруппировать 255"><path data-name="Контур 31" d="M1241.539 588.543l.481.484a.806.806 0 001.137 0l5.49-5.49 5.5 5.5a.806.806 0 001.137 0l.477-.485a.8.8 0 000-1.137l-6.544-6.567a.821.821 0 00-.57-.258.821.821 0 00-.568.258l-6.538 6.55a.812.812 0 00-.235.574.8.8 0 00.233.571z" fill="#1763de"/></g></g></g></svg>