<svg xmlns="http://www.w3.org/2000/svg" width="28.37" height="28.37"><path data-name="Контур 105" d="M9.83 0h8.709c7.948 0 9.83 1.882 9.83 9.83v8.71c0 7.948-1.882 9.83-9.83 9.83H9.83C1.882 28.37 0 26.488 0 18.54V9.83C0 1.882 1.882 0 9.83 0" fill="#4680c2"/><path data-name="Контур 106" d="M23.225 9.771c.14-.44 0-.761-.621-.761h-2.062a.913.913 0 00-.9.581 17.57 17.57 0 01-2.543 4.224c-.48.48-.7.641-.961.641-.14 0-.32-.16-.32-.6v-4.1c0-.521-.16-.761-.6-.761h-3.243a.5.5 0 00-.521.481c0 .5.741.621.821 2.022v3.043c0 .661-.12.781-.38.781-.7 0-2.4-2.583-3.424-5.526-.2-.581-.4-.8-.921-.8H5.465c-.6 0-.7.28-.7.581 0 .541.7 3.263 3.263 6.867a8.034 8.034 0 006.307 3.784c1.321 0 1.482-.3 1.482-.8v-1.869c0-.6.12-.7.541-.7.3 0 .841.16 2.062 1.341 1.4 1.4 1.642 2.042 2.423 2.042h2.062c.6 0 .881-.3.721-.881a8.912 8.912 0 00-1.742-2.423c-.481-.561-1.2-1.181-1.422-1.482-.3-.4-.22-.561 0-.921-.02 0 2.5-3.564 2.763-4.765" fill="#fff"/></svg>